<svg width="30" height="37" viewBox="0 0 30 37" fill="none" xmlns="http://www.w3.org/2000/svg">
<g clip-path="url(#clip0_2652_798)">
<path d="M14.7008 3.06832L14.8419 3.05762L14.9879 3.06832L15.061 3.08056L15.1365 3.10044L15.2738 3.15243C15.3687 3.19575 15.4589 3.25327 15.5424 3.32371L15.6712 3.4491L15.9868 3.78248C18.4838 6.34482 21.6395 7.72074 24.8851 7.66217L25.3085 7.64688C25.5852 7.63128 25.8582 7.73084 26.0837 7.92963C26.3093 8.12842 26.4743 8.41495 26.5524 8.74334C27.1607 11.2996 27.3468 13.9808 27.0997 16.6277C26.8527 19.2746 26.1775 21.8331 25.1143 24.1512C24.0511 26.4693 22.6216 28.4997 20.9107 30.1218C19.1998 31.7439 17.2425 32.9245 15.155 33.5935C14.9513 33.6588 14.7374 33.6588 14.5337 33.5935C12.4461 32.9247 10.4886 31.7442 8.77757 30.1222C7.06656 28.5002 5.63691 26.4698 4.5736 24.1516C3.51028 21.8335 2.83499 19.2749 2.58786 16.628C2.34074 13.981 2.52681 11.2997 3.13503 8.74334C3.21314 8.41495 3.37818 8.12842 3.60371 7.92963C3.82924 7.73084 4.10223 7.63128 4.37899 7.64688C7.76734 7.83823 11.0915 6.46017 13.7006 3.78248L14.0262 3.4384L14.145 3.32371C14.2285 3.25327 14.3187 3.19575 14.4136 3.15243L14.5522 3.10044C14.6008 3.08607 14.6512 3.07535 14.7008 3.06832Z" fill="#212121"/>
<circle cx="25.5232" cy="8.72696" r="3.71036" fill="white"/>
<g clip-path="url(#clip1_2652_798)">
<path fill-rule="evenodd" clip-rule="evenodd" d="M27.0233 6.95294C27.0676 6.92628 27.1205 6.91782 27.171 6.92935C27.2214 6.94087 27.2654 6.97149 27.2938 7.01477L27.4918 7.31687C27.5177 7.35633 27.5287 7.40365 27.523 7.45047C27.5174 7.49729 27.4953 7.5406 27.4608 7.57276L27.4602 7.57356L27.4574 7.57616L27.446 7.58676L27.401 7.62978C27.1519 7.87139 26.9104 8.12066 26.6768 8.37723C26.2372 8.8606 25.7152 9.49321 25.3639 10.107C25.2659 10.2783 25.0264 10.3151 24.8843 10.1672L23.5869 8.81918C23.5683 8.79986 23.5538 8.77699 23.5442 8.75194C23.5346 8.72689 23.5302 8.70017 23.5311 8.67337C23.5321 8.64657 23.5384 8.62023 23.5497 8.59593C23.5611 8.57162 23.5772 8.54984 23.5971 8.53188L23.9892 8.17816C24.0237 8.14709 24.0679 8.12897 24.1142 8.12689C24.1606 8.12481 24.2062 8.1389 24.2433 8.16676L24.9053 8.66313C25.9395 7.64338 26.5259 7.25205 27.0233 6.95294Z" fill="#212121"/>
</g>
</g>
<path d="M7.54266 14.2047L17.6332 14.2493C18.1238 14.2514 18.3199 14.8839 17.9166 15.1633L10.0631 20.6023" stroke="white" stroke-width="0.297579"/>
<path d="M7.48952 13.5533L19.0118 13.6727C19.6143 13.679 19.8599 14.4503 19.3719 14.8038L10.4119 21.2926" stroke="white" stroke-width="0.370724"/>
<path d="M20.7582 24.8488L10.6679 24.7761C10.1773 24.7726 9.98292 24.1395 10.387 23.8613L18.2556 18.4442" stroke="white" stroke-width="0.297578"/>
<path d="M20.8079 25.4975L9.28599 25.3459C8.68347 25.3379 8.44005 24.5659 8.92908 24.2138L17.9071 17.75" stroke="white" stroke-width="0.370724"/>
<defs>
<clipPath id="clip0_2652_798">
<rect width="29.7065" height="36.7018" fill="white"/>
</clipPath>
<clipPath id="clip1_2652_798">
<rect width="4.80164" height="4.80164" fill="white" transform="translate(23.123 6.32568)"/>
</clipPath>
</defs>
</svg>
